<svg xmlns="http://www.w3.org/2000/svg" width="1233.685" height="279.375" viewBox="0 0 1233.685 279.375">
  <defs>
    <style>
      .cls-1 {
        fill: #fff;
        fill-rule: evenodd;
      }
    </style>
  </defs>
  <path class="cls-1" d="M198,120c9.826,47.17-63.4,63.554-45,3,22.307-52.147,83.509-59.787,111-67-23.163,42.3-33.15,73.942-43,94-91.574,175.549-270.6,90.138-166,5,6.418-5.677-1.338-5.453-7-3-22.638,8.866-91.322,96.915,26,111,114.208,8.69,157.375-94.788,169-130s23.442-68.667,29-77c10.859-5.094,20.054-2.353,27-13s-3.442-17.415-12-13-19,19-19,19-56.8,10.508-89,28-76.49,73.179-18,94c41.819-2.179,50.783-43.922,42-53C200.939,115.309,197.435,116.591,198,120Zm80-72s3.77-7.949,11-11c3.184-.929,4.123,1.949,2,5C283.074,48.467,278,48,278,48ZM227,226l36-72a13.742,13.742,0,0,1,13-7c9.185,0.618,9,1,9,1l-25,40s35.661-39.685,58-40c1.546-.208,3.627.345,2,3s-27,56-27,56-7.662,28.59,18,3c-1.242-5.1,2.656-12.913,8-14,5.238-6.951,10-18,10-18h3l44-91s7.769-13.668,27-7c-15.741,12.494-65.977,107.363-68,122a48.224,48.224,0,0,1,7,19c3.56-.181,13.735,1.928,36-42,4.93-9.727,2-1,2-1l8-21s2.968-4.394-3-10,19,0,19,0,3.422-.277,1,7-21.037,48.917-22,52c-4.239,35.067,27.71-1.5,38-26,0.655-2.924,3-1,3-1s11.659-30.862,22-32,3.365-1.119,13,1c-11.947,9.248-22.05,29.876-27,42,10.659-11.768,31.6-39.055,62-42-60.939,114.492-6.848,69.652,8,30-0.182-.539,2-1,2-1l8-20s1.918-4.739-2-10,17,0,17,0,6.378,1.351,2,9c-47.9,83.692-8.222,79.721,17,22,2.051-3.918,7.534-26.623,13-36-3.4.064-12,0-12,0s-6.216-2.431,1-6c5.482-.1,14,0,14,0s19.846-40.244,25-45c5.215-4.812,20.926-17.5,22,6-6.187,25.026-13.407,36.789-15,39,4.766,0.091,11,0,11,0s6.426,2.66,0,6a121.754,121.754,0,0,0-15,0s-8.332,18.784-31,39c-9.757,18.868-9.967,77.9,36-2,8.584-18.439,27.434-36.872,42-37s15.049,9.412,15,11-2.924,31.179-46,37c-15.712,34.338,20.108,53.176,47-10,1.264-4.41,6.231-1.683,5,1-16.84,51.623-66.626,64.146-69,18-12.394,28.42-47.139,43.356-50,4-17.67,25.131-38.089,37.418-46,4-16.032,22.311-37.566,30.189-42,5-0.844-17.294,14.34-37.317,18-43,0.094-4.269-7.422-5.791-15,4-8.636,9.171-25.2,24.142-38,53-10.641.146-16,0-16,0s5.133-9.124,7-13c-4.6,8.9-38.728,28.761-36-10-1,2.153-14.119,23.418-28,24,0.618,21.693-7.182,74.116-39,81-7.652.016-14.462-2.615-15-13s19.93-69.167,24-74c1.017-1.017,2.328-11.437-5-1s-29.849,11.034-30-9c-0.034-4.536,4.4-27.123,18-41,4.476-4.567-4.664-3.576-7-3s-33.772,27.2-45,58C237.351,225.535,227,226,227,226Zm97-2c2.567-.848-33.386,78.135-18,77,13.273-6.434,31.726-35.455,31-73C331.954,227.27,321.433,224.848,324,224Zm7-16c-8.632,11.921.042,14.689,5,15C335.905,217.59,337.547,216.516,331,208Zm76-90c4.51-.34,9.815,2.551,9,8s-4.464,11.7-11,12-8.757-4.672-9-8S398.56,118.637,407,118Zm124,0c5.528,0.077,8.556,2.357,9,8s-5.735,11.939-12,12-8.1-4.138-8-9S523.168,117.891,531,118Zm45,18h12s11.99-25.119,14-30c3.374-10.049,1.289-20.762-10-1S576,136,576,136Zm-2,6h11a162,162,0,0,1-23,30C569.222,148.425,574,142,574,142Zm35,43s7.678-21.148,22-30,18.536-1.785,11,9C628.971,185.721,609,185,609,185ZM919,39c-1.04,1.039-5.491,1.917-12,10,72.8,14.861,84.887,108.143-73,120-14.018,20.907-49.606,67.384-96,67-49.477,5.421-55.705-63.529,13-44,4.022,3.559,1.677,3.549-7,2-42.144-7.126-36.889,42.358,5.3,32.744C792.267,210.405,804.606,189.965,841,118c20.09-39.726,49-65,49-65S782.849,38.986,739,91c-35.792,43.648,24.263,76.405,48,23,2.045-8.787,3.645-4.7,3,1-0.852,7.539-3.012,29-37,33-36.467,1.211-62.836-48.061-1-84,33.71-16.891,93.059-27.935,144-17,7.436-7.226,17.036-10.29,19-11S923.16,35.191,919,39ZM901,56s-48.085,76.992-65,108C984.283,137.873,949.125,58.335,901,56Zm47,92,14-1s8.39-1.277,4,7-18.509,42.022-22,49,0.206,35.674,22,3c1.9-1.669,15-27,15-27h3s13.5-33.59,29-32,11.55,24.753,11,28c3.15-4.841,19.43-32.513,30-33,6.36,0.187,7.14,4.9,7,6s-1.01,9.3-9,10a6.546,6.546,0,0,1-7-4c-4.27,5.96-22.03,28.184-25,40-3.64,14.059,5.51,60.249,43-15,9-15.356,26.05-37.334,44-37s14,11,14,11-1.49,29.933-46,37c-13.99,32.415,18.48,54.585,47-10,0.03-1.551,2-2,2-2s26.31-77.965,50-96c18.25-11.448,17,8,17,8s-2.12,37.864-53,91c-14.51,21.389-6.64,63.343,22,25-0.14-2.526,2.09-8.892,6-11,2.82-5.093,9-15,9-15l3-2s17.96-59.748,43-43c0.88,6.708-4,3-4,3s-6.29-4.12-10,3c-1.27,1.644-4.44,2.816-5,19,0.48,4.129,12.94,22.024,12,34-2.9,19.277-16,27-16,27s17.81,8.43,38-41c1.09-3.23,5.68-1.789,5,1s-15.58,45.787-41,45c-2.25.056-9-2-9-2s-0.38,2.821-11,3c-16.38.6-19-14-19-14s-10.76,14.664-25,14c-25.76.741-16-32-16-32s-12.58,32-38,32c-29.07,0-24-29-24-29s-12.02,28-32,28-19-25-19-25-14.8,33-35,33c-6.017-.281-7.207-1.987-9-3s-2.271-7.234,5-4c19.939,10.473,46.66-50.21,45-64-0.48-3.95-2.16-19.5-16,1-2.534,5.117-15,29-15,29h-2s-14.41,33-33,33c-5.017,0-16-1.358-16-16C936.656,182.238,954.787,153.882,948,148Zm20-30c5.88,0,8,2.435,8,8s-2.914,12-11,12-8-9-8-9S958.046,118,968,118Zm146,41c2.64-7.379-.5-16.636-12-7-11.54,9.667-25,33-25,33S1104.78,182.858,1114,159Zm26,12s31.48-70.266,35-74,14.76-16.916,9,2S1153.45,164.558,1140,171Zm34,23,22-43s0.74,27.019,2,31,2.88,28-9,37c-6-.247-10.92-9.345-10-16A8.416,8.416,0,0,0,1174,194Zm1,11c0.42,6.521,3.39,14.5,9,17C1176.56,227.112,1166.13,215.091,1175,205Z" transform="translate(-7.375 -28.625)"/>
</svg>
