<svg xmlns="http://www.w3.org/2000/svg" width="1242" height="408.969" viewBox="0 0 1242 408.969">
  <defs>
    <style>
      .cls-1 {
        fill: #fff;
        fill-rule: evenodd;
      }
    </style>
  </defs>
  <path class="cls-1" d="M414,384c12.861-14.716,78.54-96.288,200-98,87.359-1.232,167.845,50.937,196,94,5.691,6.7,10.706-.347,8-3-4.955-10.522-77.377-100-204-100-119.91,0-192.547,80.67-207,101C402.666,385.964,411.258,387.849,414,384Zm-61,38c41.553-89.462,129.769-170,261-170,171.247,0,249.7,141.244,259,170,2.225,3.238,12.033,3.5,9-5-6.8-21.209-82.2-177-269-177-181.976,0-258.793,150.214-269,177C339.813,423.912,350.28,427.855,353,422ZM74,263s-0.734-23,37-23,37,23,37,23,3.151,23-37,23S74,263,74,263Zm36-35c51.565,0,49,35,49,35s2.7,34-49,34c-49.551,0-47-35-47-35S61.926,228,110,228ZM510,72H713c9.713,0,9.975,2.4,12,9,5.4,16.187,7.874,61.793-5,87-6.133,14.32-8.976,12-38,12H511c-6.8,0-11.576-11.127-13-18s-12.081-51.574-2-76C496.789,83.735,500.862,71.15,510,72ZM718,61s14.417,0.061,19,25,2.378,68.267-7,85c-2.313,4.128-7.446,19-24,19H509c-8.718,0-14.982-7.513-19-20-4.981-15.48-13.114-64.784-5-86s21.429-23,24-23H718ZM205,250c19.388,30.4,3.25,91-88,91-76.489,0-99-43.994-99-80s8.5-76.752,103-78,237.976,0,260,0c26.063,0,56.259-4.436,66-41s20.867-77.571,23-86c9.751-18.28,7.339-28.671,45-30s206.213,2,215,2,19.134-1.545,26,24,25,103,25,103,7.941,29,23,29h76V133c0.368-13.148,10.275-16.481,18-17h134c1.82,0,12,.619,12,18v50s147.21-.534,162,0c9.83,0.355,33,4.359,33,28v14c0,5.782,9,5.782,9,0V209s-2.02-33.769-41-34c-42.34-.251-153,0-153,0V129s-1.59-23-20-23H892c-23.459,0-22.845,25.138-23,27-0.776,5.277-1.31,35.189-1,40H805c4.026,0-10.694,5.229-21-51s-12.275-51.4-16-69-8.617-35-36-35-228-2-228-2-27.565-4.246-41,31c-12.39,34.5-22.9,80.511-24,86-6.588,12.075-9.77,40.195-61,38-101.738,0-263-1-263-1S6,159.676,6,260s109,92,109,92,108-3.571,108-73c0-17.837-8.53-35.53-9-36C209.736,238.742,201.49,243.428,205,250Z" transform="translate(-6 -15.844)"/>
</svg>
