<svg version="1.1" viewBox="0.0 0.0 966.6535433070866 230.37007874015748" fill="none" stroke="none" stroke-linecap="square" stroke-miterlimit="10" xmlns:xlink="http://www.w3.org/1999/xlink" xmlns="http://www.w3.org/2000/svg"><clipPath id="p.0"><path d="m0 0l966.65356 0l0 230.37007l-966.65356 0l0 -230.37007z" clip-rule="nonzero"/></clipPath><g clip-path="url(#p.0)"><path fill="#000000" fill-opacity="0.0" d="m0 0l966.65356 0l0 230.37007l-966.65356 0z" fill-rule="evenodd"/><path fill="#000000" fill-opacity="0.0" d="m0 -29.937008l960.0 0l0 188.18898l-960.0 0z" fill-rule="evenodd"/><path fill="#ffffff" d="m221.87863 21.355488l-7.90625 1.703125q-12.78125 23.6875 -23.109375 60.531254q-3.578125 12.78125 -10.921875 28.484375q-7.328125 15.703125 -17.46875 28.859367q-37.421875 47.9375 -95.703125 47.9375q-27.0625 0 -43.046875 -11.65625q-10.90625 -8.078125 -14.46875 -21.0625q-1.328125 -4.6875 -1.328125 -12.015625q0 -7.34375 3.859375 -17.390617q3.859375 -10.0625 12.5 -17.859375q8.65625 -7.8125 13.734375 -8.1875q1.875 0 2.25 0.5625q0.5625 0.75 -2.0625 2.0625q-5.828125 2.453125 -12.984375 11.09375q-11.09375 13.171875 -11.09375 29.703117q0 12.609375 8.09375 21.625q10.15625 11.28125 28.765625 15.421875q8.265625 1.875 12.59375 1.875q4.328125 0 8.921875 -0.09375q4.609375 -0.09375 12.125 -1.96875q15.609375 -3.953125 29.890625 -12.796875q14.296875 -8.828125 24.4375 -19.078125q10.15625 -10.25 18.8125 -22.656242q14.65625 -21.234375 22.1875 -41.734375q13.15625 -34.781254 28.1875 -60.718754q-29.890625 6.203125 -47.5625 13.71875q-18.046875 7.90625 -28.0 17.671875q-12.421875 12.593754 -15.984375 28.390629q-1.125 4.515625 -1.125 8.28125q0 7.890625 4.3125 12.78125q4.328125 4.890625 9.3125 4.890625q4.984375 0 10.71875 -2.25q5.734375 -2.265625 10.0625 -7.53125q6.015625 -7.703125 6.015625 -18.234375q0 -5.265625 -1.515625 -6.578125q-0.375 -0.5625 0.375 -1.703125q1.890625 -2.8125 3.578125 0q2.4375 4.703125 2.4375 10.25q0 5.546875 -3.5625 12.125q-6.390625 12.03125 -18.421875 16.546875q-6.015625 2.25 -12.890625 2.25q-6.859375 0 -14.75 -6.203125q-7.890625 -6.203125 -7.890625 -17.296875q0 -3.375 0.75 -7.328125q10.71875 -48.312504 107.15625 -64.671875q1.6875 -3.578125 6.109375 -8.828125q4.421875 -5.265625 7.515625 -6.296875q3.109375 -1.046875 5.171875 -1.046875q6.203125 0 6.390625 5.265625q0 5.640625 -4.5 8.65625q-4.140625 2.625 -9.96875 4.5zm-4.703125 -3.0q12.78125 -2.625 12.21875 -7.140625q-0.375 -2.265625 -2.546875 -2.265625q-2.15625 0 -9.671875 9.40625zm33.080963 79.53125q-23.109375 40.593742 -23.109375 53.015617q0 4.875 3.5625 4.875q9.59375 0 25.765625 -32.515617q1.125 -2.640625 2.25 -2.0625q1.125 0.5625 1.125 1.5q0 0.9375 -0.75 2.25q-9.96875 20.124992 -16.828125 27.734367q-6.859375 7.609375 -13.71875 7.609375q-6.859375 0 -10.4375 -5.265625q-1.875 -2.4375 -1.875 -6.671875q0 -4.234375 1.875 -10.25q1.875 -6.015625 10.34375 -19.546867q2.0625 -3.390625 2.0625 -5.359375q0 -1.96875 -3.203125 -1.96875q-3.1875 0 -12.203125 8.453125q-13.546875 12.406242 -26.140625 37.234367q-1.125 1.875 -2.546875 2.34375q-1.40625 0.46875 -5.53125 0.65625q-4.140625 0.1875 -5.453125 0.9375q3.0 -6.015625 11.84375 -24.625q15.78125 -32.906242 20.671875 -37.593742q2.265625 -2.265625 6.203125 -2.265625q0.75 0 3.859375 0.5625q3.109375 0.5625 4.609375 0.1875q-6.953125 3.765625 -22.75 35.343742q8.828125 -10.890617 16.0625 -17.374992q7.25 -6.5 17.390625 -12.046875q10.15625 -5.546875 14.859375 -5.546875q1.125 0 2.0625 0.390625zm-15.973145 127.07812q-10.34375 0 -10.34375 -10.34375q0 -14.84375 19.375 -60.53125q-2.265625 -3.765625 -2.265625 -6.203125q0 -7.890625 3.578125 -10.53125q2.625 -2.25 4.40625 -2.25q1.796875 0 2.359375 0.1875q21.4375 -48.312492 38.53125 -80.28125q3.390625 -6.765625 6.953125 -9.953125q3.578125 -3.203125 9.03125 -3.203125q0.75 0 3.75 0.5625q3.015625 0.5625 4.53125 0.375q-8.84375 8.28125 -24.828125 36.48438q-15.96875 28.1875 -30.265625 60.343742q4.328125 5.265625 6.015625 14.09375l0.5625 2.4375q0.375 0 0.5625 0q5.078125 0 10.71875 -5.921875q5.640625 -5.921875 9.203125 -12.21875q3.578125 -6.296875 5.828125 -11.078117q2.265625 -4.796875 2.828125 -5.171875q0.5625 -0.375 1.03125 -0.28125q0.484375 0.09375 0.859375 0.375q0.375 0.28125 0.375 0.9375q0 0.65625 -0.375 1.40625q-15.609375 35.531242 -30.65625 35.531242q0.1875 3.015625 0.1875 9.875q0 6.859375 -3.390625 20.390625q-3.375 13.53125 -11.359375 24.25q-7.984375 10.71875 -17.203125 10.71875zm-0.1875 -10.34375q0 5.453125 3.0 5.453125q3.578125 0 9.875 -8.375q6.296875 -8.359375 10.71875 -22.9375q4.421875 -14.5625 4.421875 -26.40625q0 -0.9375 0 -1.875q-0.9375 0 -1.703125 0q-5.4375 0 -9.203125 -3.0q-17.109375 43.234375 -17.109375 57.140625zm26.5 -57.703125l1.140625 0q-0.5625 -8.09375 -4.515625 -12.984375l-4.140625 9.40625q1.890625 3.578125 7.515625 3.578125zm58.849 -70.49999q-2.625 2.25 -5.828125 2.25q-3.1875 0 -5.078125 -2.25q-1.875 -2.265625 -1.5 -5.453125q0.5625 -3.203125 3.1875 -5.453125q2.640625 -2.265625 5.828125 -2.265625q3.203125 0 5.171875 2.265625q1.984375 2.25 1.421875 5.453125q-0.5625 3.1875 -3.203125 5.453125zm-18.421875 68.98437q3.578125 0 7.515625 -3.5625q6.96875 -6.953125 17.671875 -28.390617q1.328125 -2.828125 2.640625 -1.6875q0.375 0.375 0.375 1.21875q0 0.84375 -1.515625 4.140625q-1.5 3.2812424 -2.71875 5.9218674q-1.21875 2.625 -4.703125 8.546875q-3.46875 5.921875 -6.296875 9.109375q-7.703125 8.84375 -14.5625 8.84375q-6.859375 0 -9.875 -4.125q-3.0 -4.140625 -3.0 -9.21875q0 -5.078125 2.4375 -11.09375l12.03125 -30.640617q0.375 -1.140625 0.375 -3.015625q0 -1.875 -2.25 -4.890625l10.34375 -0.1875q4.3125 0 5.0625 1.609375q0.765625 1.59375 -1.125 4.96875l-15.03125 35.156242q-3.203125 6.96875 -3.203125 11.84375q0 5.453125 5.828125 5.453125zm82.149506 -57.515617q-23.109375 40.593742 -23.109375 53.015617q0 4.875 3.5625 4.875q9.59375 0 25.765625 -32.515617q1.125 -2.640625 2.25 -2.0625q1.125 0.5625 1.125 1.5q0 0.9375 -0.75 2.25q-9.96875 20.124992 -16.828125 27.734367q-6.859375 7.609375 -13.71875 7.609375q-6.859375 0 -10.4375 -5.265625q-1.875 -2.4375 -1.875 -6.671875q0 -4.234375 1.875 -10.25q1.875 -6.015625 10.34375 -19.546867q2.0625 -3.390625 2.0625 -5.359375q0 -1.96875 -3.203125 -1.96875q-3.1875 0 -12.203125 8.453125q-13.546875 12.406242 -26.140625 37.234367q-1.125 1.875 -2.546875 2.34375q-1.40625 0.46875 -5.53125 0.65625q-4.140625 0.1875 -5.453125 0.9375q3.0 -6.015625 11.84375 -24.625q15.78125 -32.906242 20.671875 -37.593742q2.265625 -2.265625 6.203125 -2.265625q0.75 0 3.859375 0.5625q3.109375 0.5625 4.609375 0.1875q-6.953125 3.765625 -22.75 35.343742q8.828125 -10.890617 16.0625 -17.374992q7.25 -6.5 17.390625 -12.046875q10.15625 -5.546875 14.859375 -5.546875q1.125 0 2.0625 0.390625zm31.964355 -11.46875q-2.625 2.25 -5.828125 2.25q-3.1875 0 -5.078125 -2.25q-1.875 -2.265625 -1.5 -5.453125q0.5625 -3.203125 3.1875 -5.453125q2.640625 -2.265625 5.828125 -2.265625q3.203125 0 5.171875 2.265625q1.984375 2.25 1.421875 5.453125q-0.5625 3.1875 -3.203125 5.453125zm-18.421875 68.98437q3.578125 0 7.515625 -3.5625q6.96875 -6.953125 17.671875 -28.390617q1.328125 -2.828125 2.640625 -1.6875q0.375 0.375 0.375 1.21875q0 0.84375 -1.515625 4.140625q-1.5 3.2812424 -2.71875 5.9218674q-1.21875 2.625 -4.703125 8.546875q-3.46875 5.921875 -6.296875 9.109375q-7.703125 8.84375 -14.5625 8.84375q-6.859375 0 -9.875 -4.125q-3.0 -4.140625 -3.0 -9.21875q0 -5.078125 2.4375 -11.09375l12.03125 -30.640617q0.375 -1.140625 0.375 -3.015625q0 -1.875 -2.25 -4.890625l10.34375 -0.1875q4.3125 0 5.0625 1.609375q0.765625 1.59375 -1.125 4.96875l-15.03125 35.156242q-3.203125 6.96875 -3.203125 11.84375q0 5.453125 5.828125 5.453125zm20.680725 -10.90625q0 -15.59375 15.046875 -52.249992l-9.78125 0q-0.9375 0 -1.21875 -1.03125q-0.28125 -1.046875 0.1875 -2.078125q0.46875 -1.03125 1.40625 -1.03125l11.28125 0q6.765625 -14.859375 12.59375 -24.812504q5.828125 -9.96875 10.71875 -13.4375q4.890625 -3.484375 7.046875 -3.484375q2.15625 0 3.109375 0.375q4.3125 2.0625 4.3125 8.546875q0 6.484375 -4.328125 15.703129q-4.3125 9.203125 -8.453125 17.109375l9.03125 0q0.9375 0 1.21875 1.03125q0.28125 1.03125 -0.1875 2.078125q-0.46875 1.03125 -1.40625 1.03125l-10.90625 0q-10.34375 17.484375 -25.0 31.015625l-4.328125 19.171867q-0.5625 2.453125 -0.5625 4.796875q0 2.34375 1.3125 4.796875q1.3125 2.4375 4.140625 2.4375q3.1875 0 7.140625 -2.25q9.015625 -6.765625 19.921875 -28.390617q0.75 -1.6875 1.78125 -2.0625q1.046875 -0.375 1.234375 0.46875q0.1875 0.84375 -0.5625 2.71875q-6.203125 12.968742 -9.78125 18.421867q-10.15625 16.359375 -21.625 16.359375q-5.828125 0 -9.59375 -4.3125q-3.75 -4.328125 -3.75 -10.921875zm37.78125 -56.390617q12.421875 -22.1875 12.421875 -30.828129q0 -3.765625 -1.328125 -3.765625q-2.0625 0 -6.296875 6.015625q-4.21875 6.015629 -14.1875 28.578129l9.390625 0zm-2.4375 4.140625l-8.828125 0q-2.265625 5.25 -10.15625 25.0q10.15625 -10.53125 18.984375 -25.0zm15.224976 38.343742q-2.625 6.390625 -2.625 14.296875q0 5.25 2.34375 8.359375q2.359375 3.09375 6.671875 3.09375q17.109375 0 31.03125 -32.140617q1.3125 -3.015625 3.1875 -2.625q0.75 0.1875 0.75 0.9375q0 0.75 -4.234375 9.874992q-4.21875 9.109375 -8.546875 14.75q-9.59375 13.15625 -23.6875 13.15625q-7.515625 0 -12.78125 -4.890625q-5.265625 -4.890625 -5.265625 -13.34375q0 -8.453125 4.03125 -17.953117q4.046875 -9.5 11.0 -17.671875q6.96875 -8.171875 15.984375 -11.9375q4.328125 -1.875 8.265625 -1.875q3.953125 0 7.34375 2.25q3.1875 2.625 3.1875 5.828125q0 11.28125 -13.53125 21.625q-4.140625 3.1875 -11.65625 5.7343674q-7.515625 2.53125 -11.46875 2.53125zm31.59375 -30.078117q0 -3.765625 -3.015625 -3.765625q-5.265625 0 -15.984375 12.984375q-6.390625 7.890625 -11.28125 17.671875q3.203125 0 9.3125 -2.25q6.109375 -2.265625 10.625 -6.03125q10.34375 -8.828125 10.34375 -18.609375zm225.78378 -73.515625q19.921875 11.84375 19.921875 28.578125q0 13.171879 -14.65625 28.203129q-8.46875 8.84375 -20.03125 15.234375q-11.5625 6.390625 -22.84375 9.203125q-19.546875 4.703125 -35.34375 4.703125q-3.375 0 -6.765625 -0.1875q-13.71875 20.109367 -28.203125 34.218742q-21.234375 19.921875 -46.796875 19.921875q-24.453125 0 -30.09375 -13.34375q-1.3125 -3.203125 -1.3125 -7.421875q0 -4.234375 4.328125 -9.125q6.765625 -7.703125 18.984375 -7.703125q7.890625 0 16.546875 2.8125q3.1875 1.140625 2.25 2.453125q-0.75 0.75 -4.890625 -0.75q-4.125 -1.515625 -10.234375 -1.515625q-6.109375 0 -10.71875 4.609375q-4.609375 4.609375 -4.609375 9.875q0 2.0625 0.75 4.140625q3.015625 10.140625 17.109375 10.140625q21.0625 0 41.359375 -19.546875q14.484375 -14.093742 32.53125 -50.765617q6.953125 -13.71875 17.28125 -30.546879q10.34375 -16.828125 21.0625 -28.859375q1.328125 -1.3125 3.390625 -3.375q3.953125 -4.515625 6.578125 -7.15625q-13.53125 -1.875 -28.953125 -1.875q-15.421875 0 -29.140625 2.546875q-13.71875 2.53125 -23.875 6.015625q-10.15625 3.46875 -20.59375 9.015625q-10.421875 5.546875 -17.5625 14.0q-9.40625 10.71875 -9.40625 22.375004q0 7.140625 5.078125 13.359375q5.453125 6.578125 14.0 6.578125q8.5625 0 16.546875 -6.578125q7.984375 -6.59375 11.375 -16.171875q0.1875 -1.3125 0.84375 -1.78125q0.65625 -0.484375 1.21875 0.09375q0.5625 0.5625 0.5625 1.875q-0.1875 12.21875 -9.5 19.265625q-9.296875 7.046875 -20.578125 7.046875q-12.78125 0 -20.875 -7.515625q-8.078125 -7.515625 -8.078125 -19.359375q0 -10.906254 5.828125 -19.640629q5.828125 -8.75 13.90625 -14.203125q8.09375 -5.453125 18.625 -9.78125q17.859375 -7.140625 37.5 -10.046875q19.65625 -2.921875 36.65625 -2.921875q17.015625 0 31.5 3.015625q6.765625 -5.265625 11.84375 -7.140625q5.078125 -1.890625 5.734375 -1.890625q0.65625 0 0.84375 0.1875q1.125 0 0.46875 1.21875q-0.65625 1.21875 -4.328125 3.671875q-3.65625 2.4375 -7.046875 5.828125q12.03125 3.1875 21.8125 9.015625zm-74.453125 81.78125q13.734375 0 29.796875 -4.78125q16.078125 -4.796875 28.484375 -14.015625q24.0625 -18.234375 24.0625 -37.593754q0 -22.0 -33.265625 -29.890625q-10.53125 14.65625 -27.265625 44.54688q-16.734375 29.890625 -24.4375 41.734375q1.3125 0 2.625 0zm104.71594 -22.359375q-2.625 2.25 -5.828125 2.25q-3.1875 0 -5.078125 -2.25q-1.875 -2.265625 -1.5 -5.453125q0.5625 -3.203125 3.1875 -5.453125q2.640625 -2.265625 5.828125 -2.265625q3.203125 0 5.171875 2.265625q1.984375 2.25 1.421875 5.453125q-0.5625 3.1875 -3.203125 5.453125zm-18.421875 68.98437q3.578125 0 7.515625 -3.5625q6.96875 -6.953125 17.671875 -28.390617q1.328125 -2.828125 2.640625 -1.6875q0.375 0.375 0.375 1.21875q0 0.84375 -1.515625 4.140625q-1.5 3.2812424 -2.71875 5.9218674q-1.21875 2.625 -4.703125 8.546875q-3.46875 5.921875 -6.296875 9.109375q-7.703125 8.84375 -14.5625 8.84375q-6.859375 0 -9.875 -4.125q-3.0 -4.140625 -3.0 -9.21875q0 -5.078125 2.4375 -11.09375l12.03125 -30.640617q0.375 -1.140625 0.375 -3.015625q0 -1.875 -2.25 -4.890625l10.34375 -0.1875q4.3125 0 5.0625 1.609375q0.765625 1.59375 -1.125 4.96875l-15.03125 35.156242q-3.203125 6.96875 -3.203125 11.84375q0 5.453125 5.828125 5.453125zm46.993164 -34.406242q1.890625 -9.953125 1.796875 -14.65625q-0.09375 -4.703125 -3.765625 -4.703125q-3.65625 0 -8.546875 7.890625q-1.328125 2.078125 -6.03125 11.015625q-4.6875 8.921867 -5.921875 11.093742q-1.21875 2.15625 -1.96875 0.9375q-0.75 -1.234375 0.5625 -3.859375q10.90625 -22.937492 16.171875 -27.828117q5.265625 -4.328125 9.59375 -4.328125q0.375 0 0.9375 0q8.640625 0.9375 8.640625 13.171875q0 4.5 -1.125 10.515625q5.078125 -9.578125 11.75 -17.75q6.671875 -8.1875 10.625 -9.3125q1.125 -0.1875 2.71875 -0.1875q1.609375 0 3.578125 1.125q1.96875 1.125 1.3125 4.140625q-0.65625 3.0 -2.828125 4.796875q-2.15625 1.78125 -5.359375 1.78125q-3.1875 0 -4.125 -3.203125q-5.828125 5.453125 -11.65625 14.671875q-5.828125 9.203125 -8.640625 18.046867q-0.5625 3.9375 -0.5625 7.421875q0 3.484375 0.5625 6.484375q1.5 5.828125 5.078125 6.578125q1.3125 0.375 3.1875 0.375q1.890625 0 4.984375 -1.59375q3.109375 -1.59375 7.046875 -7.234375q6.015625 -8.84375 9.109375 -14.953125q3.109375 -6.1093674 3.484375 -6.7656174q0.375 -0.65625 0.5625 -1.21875q1.515625 -2.828125 2.359375 -2.0625q0.84375 0.75 0.84375 1.40625q0 0.65625 -0.28125 1.40625q-0.28125 0.75 -3.296875 6.8593674q-3.0 6.109375 -4.125 8.1875q-1.125 2.0625 -4.421875 7.046875q-3.296875 4.984375 -5.921875 7.234375q-7.515625 6.015625 -14.578125 6.015625q-7.046875 0 -10.625 -5.453125q-3.5625 -5.453125 -3.5625 -11.65625q0 -3.765625 0.1875 -5.078125q-14.84375 28.765625 -28.953125 28.765625q-3.953125 0 -6.765625 -2.8125q-0.375 -0.5625 -0.375 -1.140625q0 -0.5625 0.28125 -1.3125q0.28125 -0.75 1.3125 -1.03125q1.03125 -0.28125 2.265625 0.84375q1.21875 1.125 3.65625 1.125q2.453125 0 5.640625 -1.5q5.828125 -2.8125 13.53125 -14.75q7.71875 -11.9375 11.65625 -24.546867zm49.260254 9.593742q-2.625 6.390625 -2.625 14.296875q0 5.25 2.34375 8.359375q2.359375 3.09375 6.671875 3.09375q17.109375 0 31.03125 -32.140617q1.3125 -3.015625 3.1875 -2.625q0.75 0.1875 0.75 0.9375q0 0.75 -4.234375 9.874992q-4.21875 9.109375 -8.546875 14.75q-9.59375 13.15625 -23.6875 13.15625q-7.515625 0 -12.78125 -4.890625q-5.265625 -4.890625 -5.265625 -13.34375q0 -8.453125 4.03125 -17.953117q4.046875 -9.5 11.0 -17.671875q6.96875 -8.171875 15.984375 -11.9375q4.328125 -1.875 8.265625 -1.875q3.953125 0 7.34375 2.25q3.1875 2.625 3.1875 5.828125q0 11.28125 -13.53125 21.625q-4.140625 3.1875 -11.65625 5.7343674q-7.515625 2.53125 -11.46875 2.53125zm31.59375 -30.078117q0 -3.765625 -3.015625 -3.765625q-5.265625 0 -15.984375 12.984375q-6.390625 7.890625 -11.28125 17.671875q3.203125 0 9.3125 -2.25q6.109375 -2.265625 10.625 -6.03125q10.34375 -8.828125 10.34375 -18.609375zm16.732422 22.75q-0.1875 0.75 -1.703125 5.1718674q-1.5 4.40625 -2.53125 8.453125q-1.03125 4.046875 -1.03125 8.09375q0 4.03125 1.875 7.515625q1.875 3.46875 6.015625 3.46875q6.765625 0 13.15625 -9.109375q6.390625 -9.125 13.546875 -23.218742q1.5 -2.640625 2.8125 -2.0625q0.9375 0.75 0.375 1.96875q-0.5625 1.21875 -2.359375 5.2656174q-1.78125 4.03125 -2.625 5.640625q-0.84375 1.59375 -3.015625 5.640625q-2.15625 4.03125 -3.75 6.015625q-1.59375 1.96875 -4.328125 5.078125q-2.71875 3.09375 -5.15625 4.59375q-6.59375 4.140625 -12.421875 4.140625q-5.828125 0 -9.03125 -2.53125q-3.1875 -2.546875 -3.84375 -5.453125q-0.65625 -2.921875 -0.65625 -5.171875q0 -2.265625 0.1875 -5.828125q0.5625 -6.015625 2.34375 -11.65625q1.796875 -5.6406174 1.984375 -6.3906174q4.328125 -15.609375 12.3125 -34.03125q7.984375 -18.421875 13.53125 -27.718754q5.546875 -9.3125 8.75 -12.703125q6.390625 -6.765625 12.59375 -6.765625q4.328125 0 5.828125 6.203125q0.1875 1.125 0.1875 2.8125q0 6.40625 -4.515625 16.171879q-16.171875 35.90625 -38.53125 56.40625zm1.5 -6.015625q9.578125 -9.78125 18.984375 -24.625q9.40625 -14.859375 13.8125 -25.28125q4.421875 -10.437504 4.421875 -14.203129q0 -3.765625 -1.3125 -3.765625q-1.875 0 -7.140625 7.4375q-5.265625 7.421879 -14.203125 26.687504q-8.921875 19.265625 -14.5625 33.75zm44.184082 38.718742q2.4375 0.375 3.375 0.375q7.515625 0 14.859375 -8.828125q3.9375 -4.890625 14.09375 -24.624992q0.375 -0.9375 1.3125 -0.9375q1.703125 -0.1875 1.703125 1.3125q0 0.375 -0.859375 2.15625q-0.84375 1.78125 -1.59375 3.5781174q-0.75 1.78125 -2.453125 5.171875q-1.6875 3.375 -2.90625 5.453125q-1.21875 2.0625 -3.109375 5.078125q-1.875 3.0 -3.75 4.6875l-3.953125 4.140625q-3.1875 3.203125 -7.515625 4.515625q-6.953125 2.25 -13.53125 0.375q-4.328125 1.875 -7.71875 1.875q-13.34375 0 -16.15625 -10.53125q-0.5625 -2.4375 -0.5625 -5.90625q0 -3.484375 2.34375 -6.671875q2.34375 -3.203125 4.984375 -3.390625q9.59375 -18.234367 16.359375 -32.906242q7.515625 -15.984375 17.484375 -15.984375q2.625 0 5.15625 1.234375q2.546875 1.21875 1.890625 2.71875q-0.65625 1.5 -2.734375 0.5625q-2.0625 -0.9375 -3.5625 -0.9375q-1.5 0 -2.640625 0.5625q-6.390625 3.015625 -6.390625 12.96875q0 5.265625 1.5 8.65625q1.515625 3.375 3.390625 7.328125q4.328125 9.78125 4.328125 15.984367q0 6.203125 -3.953125 12.21875q-3.953125 6.015625 -9.390625 9.765625zm-6.40625 -1.3125q8.28125 -6.390625 8.28125 -20.671875q0 -5.828125 -1.328125 -15.984367q-1.3125 -10.15625 -1.3125 -13.71875q0 -3.578125 0.1875 -4.890625q-14.28125 28.578125 -17.671875 34.781242q3.953125 0 3.953125 5.640625q0 11.09375 7.890625 14.84375zm-14.09375 -5.078125q0 1.125 0.1875 2.453125q1.5 5.078125 6.953125 5.078125q2.265625 0 3.765625 -0.765625q-6.953125 -4.3125 -7.515625 -14.09375q-3.390625 3.390625 -3.390625 7.328125z" fill-rule="nonzero"/></g></svg>